<svg xmlns="http://www.w3.org/2000/svg" xmlns:xlink="http://www.w3.org/1999/xlink" width="1200" height="1200" viewBox="0 0 1200 1200">
  <defs>
    <clipPath id="clip-A2Logo">
      <rect width="1200" height="1200"/>
    </clipPath>
  </defs>
  <g id="A2Logo" clip-path="url(#clip-A2Logo)">
    <rect id="BG-square" width="1200" height="1200" fill="#fff9d6"/>
    <g id="A2-Logo" transform="translate(-113.881 -164.482)">
      <path id="A2R" d="M439.4,929.787H113.881L390.408,164.482H663.234l25.881,71.626c-8.727.174-17.426.742-25.854,1.69s-16.811,2.3-24.926,4.019-16.19,3.855-24,6.348a243.169,243.169,0,0,0-45.211,19.684c-7.192,4.038-14.329,8.525-21.213,13.335s-13.707,10.081-20.284,15.665-13.088,11.638-19.355,17.994c-6.443,6.534-12.569,13.321-18.209,20.172s-10.949,13.956-15.781,21.119-9.326,14.588-13.353,22.066a248.565,248.565,0,0,0-19.423,46.973,255.771,255.771,0,0,0-6.07,24.907c-1.611,8.42-2.836,17.119-3.642,25.854s-1.214,17.753-1.214,26.8v30.857H578.252l-2.2-15.429a177.1,177.1,0,0,1,2.169-28.066,149.558,149.558,0,0,1,6.509-25.794,138.086,138.086,0,0,1,10.848-23.521,141.552,141.552,0,0,1,15.187-21.248,117.552,117.552,0,0,1,18.837-17.6,109.384,109.384,0,0,1,21.8-12.57,118.986,118.986,0,0,1,24.76-7.542,147.842,147.842,0,0,1,27.722-2.514,143.962,143.962,0,0,1,20.3,1.394,120.307,120.307,0,0,1,18.7,4.182l63.631,176.1A204.1,204.1,0,0,1,788.735,592a327.2,327.2,0,0,1-26.723,32.785c-11.151,12.248-24.777,26.059-40.5,41.049L439.4,928.11v1.677Zm499.757-1.676H644.372L800.857,789.257l63.634-67.784L939.155,928.11Z" transform="translate(135.876 217.347)" fill="#f79f1b"/>
      <path id="Star" d="M134.446,0l33.611,95.051,100.835,2.577L188.829,158.95l28.708,96.645-83.092-57.153L51.353,255.594,80.061,158.95,0,97.628l100.834-2.577Z" transform="translate(909.114 382.569)" fill="#f79f1b"/>
    </g>
  </g>
</svg>
